<?xml version="1.0"?>
<svg xmlns="http://www.w3.org/2000/svg" viewBox="0 0 64 64" width="512" height="512"><g id="man-working-laptop-work_at_home" data-name="man-working-laptop-work at home"><path d="M61,56H59.7a7.124,7.124,0,0,0,.3-2,6.952,6.952,0,0,0-2-4.89V41a5.017,5.017,0,0,0-4-4.9V33a3.009,3.009,0,0,0-3-3H40.48A10.928,10.928,0,0,0,43,23h1a3.009,3.009,0,0,0,3-3V18a3.009,3.009,0,0,0-3-3H43V13a9.014,9.014,0,0,0-9-9c-.22,0-.44.01-.65.03A10.883,10.883,0,0,0,27,2,11.007,11.007,0,0,0,16,13a1,1,0,0,0,1,1h4v1H20a3.009,3.009,0,0,0-3,3v2a3.009,3.009,0,0,0,3,3h1a11.03,11.03,0,0,0,2.53,7H13a3.009,3.009,0,0,0-3,3v3.1A5.017,5.017,0,0,0,6,41v8.11A6.952,6.952,0,0,0,4,54a7.062,7.062,0,0,0,.29,2H3a1,1,0,0,0-1,1v4a1,1,0,0,0,1,1H61a1,1,0,0,0,1-1V57A1,1,0,0,0,61,56ZM43,17h1a1,1,0,0,1,1,1v2a1,1,0,0,1-1,1H43ZM21,21H20a1,1,0,0,1-1-1V18a1,1,0,0,1,1-1h1ZM54,38.17A3.014,3.014,0,0,1,56,41v6.69a6.739,6.739,0,0,0-2-.61ZM54,49.1A5.017,5.017,0,0,1,58,54a5.085,5.085,0,0,1-.42,2H55.82A3,3,0,0,0,56,55V54a2.006,2.006,0,0,0-2-2ZM18.06,12A9.008,9.008,0,0,1,27,4a8.9,8.9,0,0,1,5.45,1.85,1.009,1.009,0,0,0,.73.2A7.368,7.368,0,0,1,34,6a7.013,7.013,0,0,1,6.93,6ZM23,23V14H41v9a8.942,8.942,0,0,1-2.64,6.36,7.548,7.548,0,0,1-.74.64H26.37A9.039,9.039,0,0,1,23,23ZM12,33a1,1,0,0,1,1-1H51a1,1,0,0,1,1,1V52H12ZM54,54v1a1,1,0,0,1-1,1H11a1,1,0,0,1-1-1V54ZM8,41a3.014,3.014,0,0,1,2-2.83v8.91a6.739,6.739,0,0,0-2,.61Zm2,8.1V52a2.006,2.006,0,0,0-2,2v1a3,3,0,0,0,.18,1H6.42A5,5,0,0,1,10,49.1ZM60,60H4V58H60Z"/><path d="M32,46a4,4,0,0,0,4-4H34a2,2,0,1,1-2-2V38a4,4,0,0,0,0,8Z"/><path d="M28,23a1,1,0,0,0,1-1V20a1,1,0,0,0-2,0v2A1,1,0,0,0,28,23Z"/><path d="M36,19a1,1,0,0,0-1,1v2a1,1,0,0,0,2,0V20A1,1,0,0,0,36,19Z"/><path d="M32,27c-1.936,0-3-.751-3-1H27c0,1.71,2.149,3,5,3s5-1.29,5-3H35C35,26.249,33.936,27,32,27Z"/></g></svg>
